<svg width="18" height="18" viewBox="0 0 18 18" fill="none" xmlns="http://www.w3.org/2000/svg">
<g clip-path="url(#clip0_1_1584)">
<path d="M0.800033 9.25619C0.658768 9.11656 0.562285 8.93802 0.522886 8.74334C0.483487 8.54866 0.502956 8.34666 0.578812 8.16309C0.654669 7.97951 0.783475 7.82269 0.948809 7.71261C1.11414 7.60253 1.30851 7.54418 1.50714 7.545L15.6493 7.545C15.9004 7.56442 16.1349 7.67789 16.306 7.86273C16.4771 8.04756 16.5721 8.29015 16.5721 8.54202C16.5721 8.79388 16.4771 9.03647 16.306 9.2213C16.1349 9.40614 15.9004 9.51961 15.6493 9.53904L1.50714 9.53904C1.24336 9.54171 0.989203 9.44005 0.800033 9.25619Z" fill="#171717"/>
<path d="M7.86687 16.3231C7.67933 16.1356 7.57397 15.8813 7.57397 15.616C7.57397 15.3508 7.67933 15.0965 7.86687 14.9089L14.2308 8.54497L7.86687 2.18101C7.67933 1.99348 7.57397 1.73912 7.57397 1.47391C7.57397 1.20869 7.67933 0.954336 7.86687 0.766799C8.0544 0.579263 8.30876 0.473906 8.57397 0.473906C8.83919 0.473906 9.09355 0.579263 9.28108 0.766799L16.3521 7.83787C16.5397 8.0254 16.645 8.27976 16.645 8.54497C16.645 8.81019 16.5397 9.06454 16.3521 9.25208L9.28108 16.3231C9.09354 16.5107 8.83919 16.616 8.57397 16.616C8.30876 16.616 8.0544 16.5107 7.86687 16.3231Z" fill="#171717"/>
</g>
<defs>
<clipPath id="clip0_1_1584">
<rect width="12" height="12" fill="white" transform="translate(8.57397 0.0596924) rotate(45)"/>
</clipPath>
</defs>
</svg>
