<svg width="18" height="17" viewBox="0 0 18 17" fill="none" xmlns="http://www.w3.org/2000/svg">
<g clip-path="url(#clip0_1_1704)">
<path d="M0.800033 9.22626C0.658768 9.08662 0.562285 8.90809 0.522886 8.71341C0.483487 8.51872 0.502956 8.31672 0.578812 8.13315C0.654669 7.94958 0.783475 7.79275 0.948809 7.68267C1.11414 7.57259 1.30851 7.51424 1.50714 7.51506L15.6493 7.51506C15.9004 7.53449 16.1349 7.64796 16.306 7.83279C16.4771 8.01763 16.5721 8.26021 16.5721 8.51208C16.5721 8.76394 16.4771 9.00653 16.306 9.19137C16.1349 9.3762 15.9004 9.48967 15.6493 9.5091L1.50714 9.5091C1.24336 9.51178 0.989203 9.41011 0.800033 9.22626Z" fill="white"/>
<path d="M7.86687 16.2932C7.67933 16.1057 7.57397 15.8513 7.57397 15.5861C7.57397 15.3209 7.67933 15.0665 7.86687 14.879L14.2308 8.51504L7.86687 2.15107C7.67933 1.96354 7.57397 1.70918 7.57397 1.44397C7.57397 1.17875 7.67933 0.924398 7.86687 0.736861C8.0544 0.549325 8.30876 0.443968 8.57397 0.443968C8.83919 0.443968 9.09355 0.549325 9.28108 0.736861L16.3521 7.80793C16.5397 7.99547 16.645 8.24982 16.645 8.51504C16.645 8.78025 16.5397 9.03461 16.3521 9.22214L9.28108 16.2932C9.09354 16.4807 8.83919 16.5861 8.57397 16.5861C8.30876 16.5861 8.0544 16.4807 7.86687 16.2932Z" fill="white"/>
</g>
<defs>
<clipPath id="clip0_1_1704">
<rect width="12" height="12" fill="white" transform="translate(8.57397 0.0297546) rotate(45)"/>
</clipPath>
</defs>
</svg>
